<?xml version="1.0" encoding="utf-8"?>
<!-- Generator: Adobe Illustrator 28.2.0, SVG Export Plug-In . SVG Version: 6.00 Build 0)  -->
<svg version="1.1" id="Layer_1" xmlns="http://www.w3.org/2000/svg" xmlns:xlink="http://www.w3.org/1999/xlink" x="0px" y="0px"
	 width="83px" height="100px" viewBox="0 0 83 100" style="enable-background:new 0 0 83 100;" xml:space="preserve">
<style type="text/css">
	.st0{fill:#F4A81D;}
	.st1{fill:#F4A700;}
	.st2{fill:#FFFFFF;}
	.st3{fill:none;stroke:#F4A81D;stroke-width:3.98;stroke-miterlimit:10;}
</style>
<g>
	<path d="M82.998,96.906c0,1.13-0.898,2.043-2.01,2.043s-2.01-0.917-2.01-2.043s0.898-2.043,2.01-2.043S82.998,95.78,82.998,96.906z
		"/>
	<path d="M24.555,99.035v-9.687h-1.531v9.687h-7.69V74.449h7.69v7.963h1.531v-7.963h7.549v24.586H24.555z"/>
	<path d="M41.055,74.425h-7.787v24.586h7.787V74.425z"/>
	<path d="M42.114,74.363h12.693v6.731h-4.862v1.617h4.318v6.768h-4.318v1.875h4.862v7.595H42.114V74.363z"/>
	<path d="M55.436,98.954V74.372h13.229v6.723h-5.414v1.74h4.604v6.764h-4.604v9.355H55.436z"/>
	<path d="M67.827,89.332l1.829,1.339c1.325,0.966,2.57,1.47,3.239,1.47c0.125,0,0.532-0.106,0.939-0.381
		c0.189-0.123,0.314-0.242,0.383-0.336c0-0.614-0.596-1.576-1.748-2.772c-0.536-0.557-1.096-1.073-1.571-1.523
		c-0.254-0.233-0.483-0.454-0.677-0.647c-0.193-0.192-0.395-0.41-0.544-0.61c-0.85-1.159-1.712-2.411-1.712-5.372
		c0-3.263,2.449-6.792,7.896-6.792c1.672,0,3.46,0.442,4.923,1.208l0.628,0.324v7.144l-1.688-0.901
		c-0.91-0.479-1.434-0.786-1.897-0.966c-0.322-0.123-0.608-0.176-1.237-0.176c-0.342,0-0.858,0.487-0.858,0.721
		c0,0.418,0.072,0.59,0.157,0.729c0.052,0.09,0.133,0.205,0.27,0.356c0.141,0.16,0.298,0.332,0.483,0.524
		c0.677,0.61,1.47,1.257,2.183,1.871c0.713,0.618,1.478,1.31,1.922,1.949c0.874,1.216,1.301,2.481,1.301,4.385
		c0,5.658-3.485,8.324-8.335,8.324c-1.861,0-3.807-0.778-5.333-1.72l-0.556-0.344v-7.812L67.827,89.332z"/>
	<path d="M11.906,80.484c-0.358-0.021-0.741,0-1.204,0c-0.782,0-1.434,0.557-1.942,1.879c-0.495,1.278-0.677,2.891-0.677,4.025
		c0,1.196,0.205,2.715,0.709,3.889c0.508,1.187,1.152,1.703,1.926,1.703c0.471,0,0.798,0.021,1.128,0.004
		c0.242-0.012,0.5-0.045,0.931-0.176l1.491-0.459v6.841l-0.717,0.299c-1.196,0.495-2.296,0.684-3.577,0.684
		c-5.587,0-9.97-5.101-9.97-12.688c0-10.801,7.307-13.085,10.578-13.085c1.023,0,1.998,0.205,2.888,0.504l0.798,0.262v7.214
		l-1.619-0.725c-0.246-0.11-0.463-0.155-0.737-0.172"/>
	<path class="st0" d="M30.952,97.86V75.62h-5.245v7.967h-3.835V75.62h-5.386v22.24h5.386v-9.683h3.835v9.683H30.952z"/>
	<path class="st0" d="M39.903,75.6H34.42v22.24h5.483V75.6z"/>
	<path class="st0" d="M43.27,97.778h10.385v-5.253h-4.862v-4.217h4.314v-4.426h-4.314v-3.963h4.862v-4.381H43.27V97.778z"/>
	<path class="st0" d="M62.095,97.778v-9.355h4.608v-4.418h-4.608v-4.086h5.414v-4.377H56.592v22.236H62.095z"/>
	<path class="st0" d="M68.979,96.485c1.426,0.88,3.158,1.548,4.733,1.548c4.306,0,7.183-2.235,7.183-7.153
		c0-1.687-0.367-2.702-1.096-3.705c-0.697-1.003-2.586-2.403-3.968-3.656c-0.822-0.884-1.253-1.273-1.253-2.452
		c0-1.105,1.281-1.896,2.01-1.896c1.426,0,1.736,0.246,3.67,1.277v-4.491c-1.305-0.68-2.913-1.077-4.399-1.077
		c-4.83,0-6.743,3.021-6.743,5.617c0,2.596,0.721,3.636,1.478,4.667c0.789,1.06,4.798,3.955,4.798,6.272
		c0,0.974-1.656,1.871-2.506,1.871c-1.043,0-2.538-0.68-3.911-1.687v4.86L68.979,96.485z"/>
	<path class="st0" d="M13.106,79.584c-0.798-0.356-1.422-0.266-2.405-0.266c-3.017,0-3.771,4.622-3.771,7.075
		c0,2.6,0.886,6.764,3.791,6.764c0.987,0,1.374,0.086,2.389-0.225v4.475c-1.035,0.43-1.982,0.598-3.138,0.598
		c-4.753,0-8.818-4.36-8.818-11.517c0-9.978,6.602-11.91,9.422-11.91c0.87,0,1.72,0.18,2.53,0.446v4.565V79.584z"/>
	<path class="st1" d="M81.822,96.599v0.868h0.205v-1.011h-0.338l-0.226,0.737l-0.21-0.737h-0.35v1.011h0.201v-0.868l0.266,0.868
		h0.177l0.278-0.868H81.822z M79.949,96.624h0.298v0.843h0.213v-0.843h0.298v-0.168h-0.806v0.168H79.949z"/>
	<path class="st2" d="M79.866,63.343c-0.817-3.82,0-6.312,0-6.312L78.977,51.5c1.594-2.396-0.327-8.847-0.327-8.847
		c1.475-2.977,0.157-5.462,0.157-5.462c0.451-1.737-1.06-4.089-1.06-4.089c-2.258-3.126-4.932-4.376-4.932-4.376l-6.311-1.338
		l-15.253-6.215l-0.594-0.227c0.903-3.091,0.411-6.668,0.411-6.668c0.619-1.459-0.046-3.126-0.046-3.126
		c0.156-1.146-0.087-2.136-0.677-2.865c-0.59-0.729-0.816-2.621-0.816-2.621c-0.625-2.412-3.386-3.871-3.386-3.871
		c-3.786-2.237-9.151,0-9.151,0c-2.923,1.527-3.549,3.871-3.549,3.871s0.545,1.457-1.331,3.905c0,0,0.339,1.303,0,1.85
		c0,0-1.6,2.136-0.565,3.386c0,0-2.196,3.751-2.378,6.46c0,0-0.026,0.781,0.886,1.25c0,0-5.21,1.875-6.59,3.516
		c0,0-10.107,1.641-10.523,1.745c-0.417,0.104-4.246,1.771-5.731,4.116l-2.527,5.913L5.49,42.08c0,0-3.017,8.453-2.527,10.721
		c0,0,0,0.001,0,0.001c0.61,2.563,2.199,10.22,2.058,20.032l3.091,4.411l3.16-0.521c0,0,4.476,0.476,7.14-0.125
		c0,0,0.692-0.18,1.533-0.368c0.032-0.007,0.063-0.014,0.095-0.021c0.093-0.021,0.187-0.041,0.283-0.061
		c0.039-0.008,0.077-0.016,0.115-0.025c0.665-0.14,1.357-0.266,1.843-0.303l6.773-5.093h0.659h1.158h2.079h0.316h45.226
		C81.342,65.297,79.866,63.343,79.866,63.343z"/>
	<path d="M59.613,70.638l-0.024,0.09h1.873c0-0.025,0.004-0.053,0.008-0.065c0.129-1.253-0.193-2.567-0.326-3.89
		C60.435,67.956,60.004,69.258,59.613,70.638z"/>
	<path d="M37.127,13.552c0.125-0.119,0.673-0.459,1.06-0.852c0.387-0.393,1.309-0.966,1.309-0.966l3.855,0.029
		c0,0,1.982,1.359,2.401,1.666c0.415,0.299,0.266,0.086-0.33-0.606c-0.592-0.696-1.712-2.137-2.191-2.137s-1.281,0.184-1.724,0.151
		c-0.447-0.029-0.91-0.213-1.269-0.213c-0.359,0-1.974,1.261-2.558,2.014c-1.168,1.502-0.681,1.028-0.556,0.909"/>
	<path d="M43.117,9.572c0.778,0,0.129-0.794,0.129-1.122c-0.648-0.328-0.781-1.982-2.01-1.58c-0.778,0.79-1.168,1.384-1.619,2.371
		C40.459,9.899,42.014,8.843,43.117,9.572z"/>
	<path class="st0" d="M63.477,23.607c1.233,1.978,2.014,4.88,0.975,7.054c-1.233,0.79-3.827-0.393-4.411,1.58
		c-0.391,0.991-0.193,1.847,0.713,2.44c1.039,0.594,3.243-0.463,3.311,1.384c-0.326,2.903-1.881,5.797-4.609,6.854
		c-2.852,1.519-4.214-1.515-6.159-2.706c-0.906-1.056-1.491-2.24-3.178-1.646c-0.713,0.197-1.623,0.332-2.272,0.131
		c-1.168-0.987-1.942-2.633-2.268-4.348c0.455-1.781,1.1-3.562,2.268-4.942c0.52-0.201,1.168-0.659,1.817-0.266
		c0.455,0.594,1.362,0.987,2.401,0.79c0.645-0.598,1.817-0.659,2.006-1.781c-0.193-1.453-1.623-1.056-1.946-2.571
		c0.391-1.978,2.01-3.824,4.016-4.148h3.049l4.278,2.17L63.477,23.607z"/>
	<path class="st3" d="M63.477,23.607c1.233,1.978,2.014,4.88,0.975,7.054c-1.233,0.79-3.827-0.393-4.411,1.58
		c-0.391,0.991-0.193,1.847,0.713,2.44c1.039,0.594,3.243-0.463,3.311,1.384c-0.326,2.903-1.881,5.797-4.609,6.854
		c-2.852,1.519-4.214-1.515-6.159-2.706c-0.906-1.056-1.491-2.24-3.178-1.646c-0.713,0.197-1.623,0.332-2.272,0.131
		c-1.168-0.987-1.942-2.633-2.268-4.348c0.455-1.781,1.1-3.562,2.268-4.942c0.52-0.201,1.168-0.659,1.817-0.266
		c0.455,0.594,1.362,0.987,2.401,0.79c0.645-0.598,1.817-0.659,2.006-1.781c-0.193-1.453-1.623-1.056-1.946-2.571
		c0.391-1.978,2.01-3.824,4.016-4.148h3.049l4.278,2.17L63.477,23.607z"/>
	<path d="M78.849,63.612c-0.584-2.043-0.971-4.414-0.262-6.526l-0.713-5.535c1.619-2.964-0.322-6.264-0.52-9.355
		c1.229-1.318,1.035-3.296,0.391-4.88c0.387-4.086-2.53-4.811-4.669-7.513l-4.991-1.118c-0.52-0.201-1.233,0.066-1.555-0.458
		c0.129-2.178-1.297-3.759-2.075-5.54l-4.802-2.567h-4.411c-1.104,0.659-2.332,1.187-3.174,2.104
		c-0.91,0.925-1.817-0.393-2.663-0.721c0.129-2.178,1.043-3.935,0.266-7.091c0.52-1.187,0.782-1.847-0.06-2.964
		c0.342-1.306,0.31-1.846-0.612-2.911c-0.741-0.753-0.399-1.752-0.645-2.629c-0.842-2.174-2.514-3.189-4.653-3.984
		c-3.762-0.528-7.718,0.528-9.08,3.955c0.008,3.03-1.104,2.702-1.491,4.152c0.975,1.777-1.426,2.899-0.455,4.549
		c-0.584,2.436-2.401,4.418-2.401,6.985c0.242,0.287,0.922,0.864,1.752,0.352c0.218-0.586,0.596-2.866,0.786-2.71
		c0.391,0.352,0.185,2.727,0.302,2.739c-2.594,1.842-6.925,3.112-9.322,5.155L14,28.684c-2.465,0.197-3.891,2.371-5.837,3.82
		l-2.075,5.802l0.782,3.82c-1.233,3.226-2.272,6.592-2.594,10.215c1.623,6.522,1.555,13.839,2.332,20.631l2.401,3.099l2.208-0.594
		c3.307,1.187,6.872-0.393,10.244-0.79l9.66-6.985c0.649-0.463,1.362,0.79,1.881,1.052c3.634,0.201,6.614,0.266,9.664-1.249
		l4.149,1.449h5.773l3.565-2.702c-0.58,0.065-1.1,0.266-1.619,0.463c-2.079,1.515-5.124,0.856-7.722,0.856l-2.917-1.978l-0.584-3.03
		c1.362-2.244,4.282-1.58,6.486-2.178c2.401,0.725,4.798,1.715,7.13,2.178l-4.54-3.165c-2.788-0.066-5.769,1.449-8.298-0.131
		c-0.064-0.524-0.322-1.253-0.064-1.781c1.297,1.253,3.178,1.847,5.06,1.318c1.104-0.725,3.049-1.318,2.788-3.095
		c0.064-0.528,0.648-0.262,0.971-0.463c0.455-0.659,1.297-1.519,0.782-2.506c0.713-0.79,1.817-0.987,1.619-2.371
		c-0.129-0.991,1.172-1.052,1.494-1.847c1.035,0,2.268,0,3.243,0.327c1.559,4.614-0.451,9.294-0.713,13.908
		c-0.516,2.759-2.002,5.261-2.332,7.955v0.021h1.829c0.024-0.061,0.04-0.094,0.048-0.131c1.555-3.759,2.981-7.513,3.501-11.734
		l0.391-0.393c0.584,0.856,1.1,1.781,1.426,2.702c-1.491,1.584-1.813,3.627-2.268,5.601c0.31,1.204-0.028,2.764,0.576,3.935
		l0.012,0.012h1.382c0,0-0.024-0.049-0.024-0.061c-0.391-2.833-0.584-6.26,1.688-8.303c0.971,0.201,1.881,0.528,2.723,0.987
		c-0.713,1.584-0.778,3.623-0.842,5.404c0.777-1.052,1.362-2.24,1.877-3.423c0.648-0.991,1.039-2.633,2.465-2.633
		c0.975-0.663,1.946-1.253,1.752-2.702c-0.713,0.066-1.164,0.79-1.752,0.987c-2.01,1.187-3.758-0.201-5.511-1.122
		c-1.49-2.502-3.049-5.007-3.178-8.107c-0.065-1.515-0.778-3.824,0.91-4.745c0.133-0.663,0.451-1.187,0.645-1.781l2.856,0.925
		c1.555-0.197,2.917,0.458,4.278,0c-1.164-0.463-2.397-0.659-3.629-0.987c-1.366-1.056-4.085-1.122-3.96-3.558
		c0.91-1.847,1.494-3.824,1.688-5.933l-1.233-1.978c-0.906-0.397-2.204,0.131-3.045-0.528c0.258-1.122,1.817-0.393,2.723-0.594
		c1.43-0.066,1.688-1.646,2.272-2.567l5.184,1.781c1.491,1.384,2.143,2.24,3.243,3.562c0.064,1.908,1.168,4.086,0.197,5.662
		c0.258,1.781-1.168,2.702-1.555,4.221c0.713,0.066,1.164-0.925,1.817-0.594c0.391,2.309,1.946,4.88,0.129,6.985
		c0.193,2.968,1.039,5.802,0.193,8.7l0.91,2.837c0.508,2.972-1.345,4.999-1.603,7.566h2.256c0.778-2.235,2.071-4.274,1.551-7.103
		 M31.939,19.955c-0.218,0.618-0.435,1.24-0.786,1.105c-0.346-0.131-0.262-0.352-0.085-1.015c0.173-0.663,1.309-2.915,1.309-2.915
		l0.302,0.663c0,0-0.524,1.548-0.737,2.166 M49.337,12.352c0.089,0.221,0.306,0.929,0.306,0.929l-0.479,0.352l-0.262-1.015
		C48.902,12.618,49.248,12.131,49.337,12.352z M34.263,16.254c0.093-0.373,0.121-0.778,0.552-2.506
		c0.427-1.72,1.349-2.751,2.151-3.157c0.798-0.405,1.482-1.22,1.482-1.22s-0.31,0.098-0.983,0.344
		c-0.677,0.25-1.233,0.217-1.728,0.217c-0.495,0-0.459-0.434-0.89-1.06c-0.431-0.626,1.136-1.069,1.748-1.474
		c0.616-0.405,1.297-0.504,2.248-0.377c0.951,0.127,1.168-0.246,1.535-0.594c0.371-0.344,0.592-0.721,0.467-0.905
		c-0.125-0.188-0.367-0.626-0.528-0.594c-0.161,0.029-1.535,0.123-2.272,0.25c-0.737,0.123-0.923,0.123-1.515,0.778
		c-0.588,0.655-1.104,0.344-0.89-0.156s1.482-3.255,5.91-3.255c4.427,0,5.511,2.661,5.664,3.406
		c0.153,0.749-0.681,0.156-1.051-0.188c-0.367-0.344-0.584-0.594-1.627-0.721c-1.043-0.123-1.942-0.184-2.22,0.127
		c-0.274,0.311-0.246,0.684-0.093,0.905c0.153,0.217,0.922,0.966,0.922,0.966s1.603-0.094,2.34-0.061
		c0.737,0.029,1.418,0.721,2.155,1.224c0.737,0.504,0.338,0.999,0.121,1.437c-0.214,0.438-0.83,0.315-1.482,0.315
		s-1.72-0.626-1.72-0.626s0.338,0.626,1.015,1.093c0.677,0.467,1.849,1.286,2.248,2.502c0.403,1.216,0.923,3.378,0.802,3.783
		c-0.125,0.41-0.463,1.003-0.556,0.848c-0.089-0.156-1.418-1.499-2.554-2.403c-1.136-0.905-1.881-1.908-4.218-1.908
		c-2.336,0-3.074,0.966-4.089,2.002c-1.015,1.036-2.28,2.244-2.28,2.244s-0.125,0-0.306-0.217c-0.185-0.221-0.463-0.655-0.367-1.032
		 M33.332,12.794c0.133-0.352,0.431-1.06,0.391-0.442c-0.036,0.618-0.218,1.241-0.218,1.241l-0.35-0.352c0,0,0.044-0.09,0.173-0.446
		 M41.627,65.589l-3.114,1.912c-2.268,0-4.733,0.131-6.615-0.725c1.1-1.846,2.204-3.824,3.372-5.666
		c1.623-1.384,3.762-0.131,5.515,0.131l1.297,0.991C42.082,63.284,41.885,64.537,41.627,65.589z M36.503,59.395
		c0.584-1.58,1.619-2.174,2.659-3.427c0.52-0.262,1.104-0.458,1.684-0.524c0.387,0.193,0.455,0.721,0.91,0.786
		c-0.129,0.921,0,2.109-0.391,3.034C39.939,60.447,38.058,59.53,36.503,59.395z M46.618,57.679c-0.52-0.262-1.233-0.528-1.426-1.253
		c0-0.921,1.164-1.183,1.813-1.515c1.362,0.065,3.114-0.196,3.634,1.122C50.119,57.749,48.237,57.614,46.618,57.679z M55.891,45.556
		c-0.846,0.459-1.555-0.528-2.204-0.79c-0.91-0.659-1.946-1.318-2.788-1.912c-0.129,0.594,0.451,1.122,0.584,1.711l3.759,2.772
		c0.326,0.594-0.129,0.921-0.649,1.122c-1.491-0.729-2.981-1.388-4.085-2.44c-0.322,2.702,2.917,2.44,3.436,4.68
		c-0.455,0.659-1.104,0.459-1.748,0.066c-0.91-0.725-2.143-1.122-2.727-2.174c-0.842,2.37,2.143,2.899,2.917,4.61
		c-0.129,0.332,0,0.987-0.584,1.056c-1.297-0.79-2.53-1.58-3.565-2.702c-0.906,1.384-2.53,1.781-4.02,2.702
		c-1.813,0.201-3.307-1.122-4.858-0.528c-2.663,0.725-3.702,3.623-5.515,5.339l-4.411,7.316l-8.56,6.723
		c-3.436,0.201-7.199,1.384-10.635,0.266c-2.598-1.384-1.688-4.221-2.203-6.461c-0.455-4.614,0-9.625-1.035-14.035
		c0.516-3.034,1.035-6.068,2.272-8.766c0.842-0.332,1.748,0.332,2.332,0l-2.006-3.23c-0.975-2.571,0-4.946,0.645-7.316l3.372-2.837
		c4.669-1.515,10.506-1.118,14.268-4.086l5.253-2.043c0.262,1.187-0.129,2.637,0.326,3.754c1.575-3.447,1.301-7.902,3.569-10.604
		c0.193,1.584,0.383,4.475,2.199,5.396c-1.023-2.702-0.951-5.544,1.192-7.12c1.035-0.201,2.179,0.135,2.828,0.794
		c0.971,0.921,0.451,2.637,0.451,3.885c-0.391,0.729-0.778,1.449-1.362,1.978c0.842,1.453,0,3.034,0.391,4.68
		c0.842-0.725,0.58-2.502,1.164-3.558c1.49-0.856,1.635-3.288,1.833-5.134l0.395-0.532c2.336,1.711,0.5,6.522,2.965,8.168
		l0.258-2.506c2.204,0.262-0.52,2.899,1.881,3.427c0.322,0.332,0.975,0.397,0.778,0.925c-1.168,0-1.229-1.715-2.594-1.453
		c-2.075,0.397-3.178,2.174-4.21,3.824c-1.039,0.262-2.336,0.594-2.925,1.388c-0.777,0.065-0.713-0.659-1.361-0.794
		c-3.174-0.594-6.353-1.118-9.729-1.183c-0.129,0-0.193,0.131-0.322,0.066c1.946,2.039,6.095,0.856,8.174,2.899l1.293,1.454
		c-0.713,2.964,0.068,6.854-3.045,8.172c-2.852,1.253-6.292,1.449-9.402,1.711c-1.688-0.262-3.436-0.393-5.06-0.79
		c-2.526-1.646-0.258-4.68-0.129-6.923l1.297-3.754l-0.387,0.131l-2.917,3.693l-1.624,4.348c-2.143,1.646-4.407,2.506-6.872,3.562
		l0.258,0.127l3.634-0.127l3.243-1.122c0.391,1.584,1.233,2.702,2.139,3.889c-0.906,2.436,0.713,5.47-0.906,7.644
		c-1.619,0.725-3.376,1.65-5.124,2.305c-2.594,0-2.272-2.964-3.372-4.483c-0.842,1.253-0.391,3.361,0,4.942
		c0.387,0.921,2.139,1.65,1.035,2.702c-1.035,0.725-0.713,2.109-0.906,3.165l0.52-0.065l2.981-3.562
		c3.634-3.161,8.56-3.755,12.774-5.798c5.902-3.099,12.19-6.195,16.343-10.874c2.075-0.921,3.565-3.427,6.417-2.833
		c1.233,1.58,3.049,2.375,4.475,3.628c0.193,0.463,0.649,1.122,0.193,1.515 M45.969,40.021c-0.326,0.659-0.91,0.987-1.491,1.384
		l-1.233-1.253l-0.129-5.998c0.322-0.327,0.52-0.594,0.906-0.856C43.246,35.603,44.543,38.113,45.969,40.021z M40.91,44.369
		l-2.336,1.973c-4.927,2.305-9.922,5.077-14.913,7.185c-0.778-1.912-0.391-4.283,0.842-5.867c5.06,0.332,9.535-0.921,13.878-2.375
		l2.401-1.118l0.129,0.197V44.369z M60.471,45.65l-2.715-0.459c0.455,0.037,1.297-0.049,2.087-0.356
		c0.669-0.258,1.293-0.737,1.619-0.798c0.068,0.921-0.415,1.216-0.995,1.609 M64.451,30.657c-1.233,0.79-3.827-0.393-4.411,1.585
		c-0.391,0.991-0.193,1.847,0.713,2.44c1.039,0.594,3.243-0.463,3.311,1.384c-0.326,2.899-1.881,5.797-4.609,6.854
		c-2.852,1.519-4.214-1.515-6.159-2.706c-0.91-1.056-1.494-2.24-3.178-1.646c-0.713,0.197-1.623,0.332-2.272,0.131
		c-1.164-0.987-1.942-2.633-2.268-4.348c0.455-1.781,1.104-3.562,2.268-4.942c0.52-0.201,1.168-0.659,1.817-0.262
		c0.451,0.59,1.362,0.987,2.401,0.79c0.645-0.598,1.817-0.659,2.006-1.781c-0.193-1.454-1.623-1.056-1.946-2.571
		c0.391-1.978,2.01-3.824,4.016-4.147h3.049l4.278,2.17c1.233,1.978,2.014,4.88,0.975,7.054"/>
	<path d="M63.932,61.503c0.83-0.397,0.274-1.056-0.556-1.253c-0.975,0.528-0.975,1.646-0.838,2.043
		c0.556-0.196,0.697-0.594,1.39-0.79"/>
	<path class="st0" d="M50.574,56.21v-0.311c-0.584-1.159-2.256-0.921-3.565-0.983c-0.649,0.332-1.813,0.594-1.813,1.515
		c0.189,0.725,0.906,0.991,1.426,1.253c1.563-0.061,3.36,0.053,3.956-1.47"/>
</g>
</svg>
