<svg width="150" height="150" viewBox="0 0 150 150" fill="none" xmlns="http://www.w3.org/2000/svg">
<g clip-path="url(#clip0_4487_41)">
<path d="M73.5851 20.2068C44.4406 20.2068 23.4376 32.3602 23.4376 32.3602V92.4192C23.4376 101.092 26.6235 109.233 33.2311 117.375C38.0689 123.275 44.4996 129.056 54.1751 136.136L73.5851 150L92.9362 136.136C102.612 129.115 109.101 123.334 113.88 117.375C120.488 109.233 123.674 101.092 123.674 92.4192V32.3602C123.674 32.3602 102.671 20.2068 73.5261 20.2068H73.5851ZM30.2813 43.7466C30.2813 43.8056 30.2813 43.8646 30.2813 43.9236V38.3779C43.9686 31.4162 58.7769 27.9354 73.6441 27.9354C88.5114 27.9354 81.1957 28.1714 84.9126 28.5844C64.5586 29.4693 42.9657 37.0799 30.2813 48.2304V43.7466ZM73.6441 139.971L58.3049 128.997C43.0837 117.906 30.3403 105.989 30.3403 90.8263V76.903C31.9922 90.5903 44.2046 101.623 58.3049 111.888L85.6205 131.416L73.6441 139.971ZM116.535 88.0534C115.65 90.4723 114.234 94.5431 113.172 96.962C112.641 98.0829 110.812 97.7289 110.281 98.5549C108.57 101.092 105.149 101.623 103.025 101.328C100.075 100.856 98.2459 99.7938 96.535 98.4369C94.6471 96.903 94.6471 95.664 94.7061 94.6021C94.7651 93.4811 94.8831 92.1832 94.7651 90.7083C94.7651 88.8794 89.9863 84.0416 86.3875 78.0239C88.0394 77.9059 88.8064 77.4339 88.8064 77.4339C88.3344 77.3159 87.9214 77.1979 87.4494 77.0799C84.3226 76.254 81.3137 75.015 78.5999 73.1861C77.125 72.2422 75.827 70.8853 74.7061 69.3513C73.4081 67.3454 71.8152 63.5106 73.4081 58.2009C71.3432 61.5637 71.3432 65.9885 73.2312 69.7643C67.9214 76.49 67.8624 88.9974 94.1161 107.522L105.149 115.428C102.022 118.673 98.3639 121.859 94.4701 124.868L58.2459 98.9679C43.5556 88.2894 31.1073 76.785 30.2813 62.3307C34.7061 49.9413 49.9273 35.251 86.8005 30.0593L87.6854 29.9413C89.9863 29.7053 92.2282 29.7053 94.4701 30.1773C96.535 30.6493 98.5999 31.1802 100.606 31.7702C100.842 31.8292 101.019 31.8882 101.196 31.9472C106.505 33.5991 111.756 35.664 116.83 38.2599C115.532 41.9767 106.623 42.8617 105.385 42.9796C106.564 44.4546 109.16 47.9354 112.641 53.5401C114.175 56.077 115.296 58.4959 115.768 59.5578C115.945 59.9708 116.004 60.3838 115.945 60.8558C115.768 61.8587 115.296 63.5696 113.821 65.1625C113.821 65.1625 116.122 80.3838 116.889 85.4575C117.007 86.2835 116.889 87.1094 116.535 87.9354V88.0534ZM116.889 45.4575C116.594 48.2894 112.346 49.6463 112.346 49.6463C110.871 47.3454 108.629 44.2186 108.629 44.2186C108.629 44.2186 112.582 43.7466 116.889 45.4575Z" fill="#FDBB2A"/>
<path d="M98.3639 55.1328C98.0099 54.5428 97.6559 54.0118 97.243 53.7168C95.591 52.5369 93.2312 50.826 91.1663 50.354C90.9893 51.5929 91.9332 54.0708 92.7002 54.8968C93.4671 55.7817 96.889 55.7817 96.889 55.7817L100.311 58.1416L98.4229 55.1328H98.3639Z" fill="#FDBB2A"/>
<path d="M110.812 64.7491C112.464 62.9792 112.936 61.5043 113.054 60.6783C113.054 60.4423 113.054 60.2063 112.995 59.9703C112.523 58.7314 110.576 54.4836 103.909 48.9969C97.1838 43.5102 89.5142 42.0942 89.5142 42.0942C89.5142 42.0942 100.606 45.2211 108.334 59.8524C108.452 60.0883 108.511 60.3833 108.452 60.6783C107.98 62.4482 106.623 63.4512 106.623 63.4512C106.623 63.4512 104.971 62.1532 102.966 61.0913C107.331 66.519 108.039 69.1149 108.865 73.1857L109.868 79.0854C110.104 80.4423 110.812 80.0883 110.989 81.6223C110.399 81.0913 109.455 81.0913 109.455 81.0913C108.334 80.9733 106.269 81.2093 105.089 83.0972C103.85 85.1621 104.558 87.699 104.558 87.699C104.558 87.699 104.794 84.5721 106.977 83.4512C108.511 82.6842 110.222 82.9792 111.52 83.9821C112.995 85.1031 113.88 85.1031 113.88 85.1031L110.812 64.8081V64.7491Z" fill="#FDBB2A"/>
<path d="M34.7061 15.7225C34.7061 14.1886 33.8801 13.4807 32.9362 13.3627C33.5851 12.7137 34.4111 11.5338 34.4111 10.1178C34.4111 7.87594 33.0542 7.10897 30.6943 7.99393C28.2164 8.93788 25.7975 9.99983 23.4376 11.1208C23.4376 12.7727 23.4376 14.3656 23.4376 16.0175C23.5556 14.4836 24.2046 13.7166 25.3845 13.1857C25.5025 13.1857 28.8654 11.6517 30.3993 11.0618C31.2252 10.7668 31.6382 10.9438 31.6382 11.6517C31.6382 12.3597 31.1663 12.8907 30.3993 13.2447C28.8064 13.8936 27.2134 14.6016 25.6205 15.3096C24.1456 16.0175 23.4376 17.9644 23.4376 19.2624C23.4376 20.9733 23.4376 22.6842 23.4376 24.3951C25.9155 23.1562 28.4524 21.9762 30.9893 20.9143C33.3491 19.9113 34.7651 18.0824 34.7651 15.7815L34.7061 15.7225ZM26.1515 20.0293C26.1515 19.2624 26.1515 18.4364 26.1515 17.6694C27.6264 16.9615 29.1604 16.3125 30.6353 15.7225C31.4022 15.4276 31.8742 15.7225 31.8742 16.3715C31.8742 17.0795 31.4612 17.7284 30.6353 18.0234C29.1014 18.6724 27.6264 19.3214 26.1515 20.0293Z" fill="#FDBB2A"/>
<path d="M39.8388 17.5517C39.8388 16.1358 39.8388 14.7789 39.8388 13.363C40.8418 13.068 41.8447 12.773 42.8477 12.478C43.6146 13.6579 44.4406 14.8379 45.2075 16.0178C46.3875 15.7228 47.5084 15.4279 48.6884 15.1329C47.8034 13.8349 46.9185 12.537 45.9745 11.2981C47.5084 10.2951 48.3934 8.76119 48.3934 6.93228C48.3934 4.27741 46.6235 3.15647 43.9096 3.80544C41.5497 4.39541 39.1898 5.10337 36.83 5.87033C36.83 10.1181 36.83 14.3659 36.83 18.6137C37.8329 18.2597 38.8359 17.9057 39.7798 17.6107L39.8388 17.5517ZM43.7916 6.69629C44.8536 6.40131 45.4435 6.81428 45.4435 7.69924C45.4435 8.5252 44.8536 9.23317 43.7916 9.52815C42.4937 9.88213 41.1367 10.2361 39.8388 10.6491C39.8388 9.70514 39.8388 8.76119 39.8388 7.81724C41.1367 7.40426 42.4937 7.05027 43.7916 6.69629Z" fill="#FDBB2A"/>
<path d="M53.5851 14.0711C53.5851 9.94135 53.5851 5.81156 53.5851 1.68176C52.5821 1.85875 51.5202 2.03575 50.5172 2.21274C50.5172 6.34253 50.5172 10.4723 50.5172 14.6611C51.5202 14.4251 52.5231 14.2481 53.5851 14.0711Z" fill="#FDBB2A"/>
<path d="M62.0806 10.295C60.4877 10.472 58.4818 10.177 57.1248 8.93805C56.5349 9.88201 55.9449 10.826 55.2959 11.7699C56.4759 12.9499 59.4257 13.3628 61.8446 13.0678C65.3844 12.7139 67.9213 11.2389 67.9213 8.40708C67.9213 5.57522 65.2664 5.28024 62.6706 5.16224C60.0157 5.16224 59.1897 5.16224 59.1897 4.45427C59.1897 3.80531 60.0157 3.33333 61.4906 3.15634C63.3195 2.97935 64.9714 3.45132 65.9154 4.39528C66.5054 3.56932 67.1543 2.74336 67.7443 1.9764C66.5644 0.855455 64.2635 0.14749 61.7266 0.383478C58.3638 0.737461 56.0629 2.62537 56.0629 5.22124C56.0629 7.81711 58.3048 8.0531 60.9006 8.0531C63.7325 8.0531 64.6175 8.11209 64.6175 8.93805C64.6175 9.64602 63.5555 10.059 62.0216 10.236L62.0806 10.295Z" fill="#FDBB2A"/>
<path d="M87.0953 10.7667C89.0422 11.0027 91.0481 11.2977 92.9951 11.6517C93.349 12.4777 93.644 13.3036 93.998 14.1886C95.1189 14.4246 96.2399 14.6016 97.3608 14.8965C95.5319 10.3538 93.703 5.86998 91.8741 1.5042C90.6942 1.32721 89.5142 1.15022 88.3343 1.03223C86.5054 4.92603 84.6175 8.81984 82.7886 12.7726C83.9095 12.8906 84.9714 12.9496 86.0924 13.0676C86.4464 12.3597 86.8004 11.5927 87.0953 10.8847V10.7667ZM90.0452 4.45405C90.6352 5.86998 91.2251 7.28591 91.8151 8.76084C90.6352 8.58385 89.4552 8.40686 88.2753 8.22987C88.8653 6.99093 89.4552 5.69299 90.0452 4.45405Z" fill="#FDBB2A"/>
<path d="M101.845 7.81691C103.969 11.0617 106.092 14.4246 108.216 17.8464C109.101 18.1414 109.986 18.4364 110.812 18.7314C110.812 14.4836 110.812 10.2358 110.812 5.988C109.868 5.69302 108.865 5.33904 107.921 5.10305C107.921 7.69892 107.921 10.2948 107.921 12.8907C105.915 9.64582 103.91 6.51898 101.904 3.45113C100.901 3.21514 99.8978 2.97915 98.8948 2.74316C98.8948 6.87296 98.8948 11.0617 98.8948 15.1915C99.8978 15.4275 100.842 15.6635 101.845 15.8995C101.845 13.1856 101.845 10.4718 101.845 7.75792V7.81691Z" fill="#FDBB2A"/>
<path d="M78.0689 12.3599C80.6057 12.4779 82.0217 11.2979 82.0217 9.11504C82.0217 7.64012 81.1957 6.63717 80.1337 6.1062C80.8417 5.81121 81.6677 4.98525 81.6677 3.62832C81.6677 1.44543 80.2517 0.147493 77.7149 0.0884956C75.119 -0.0294985 72.4641 -0.0294985 69.8683 0.0884956C69.8683 4.15929 69.8683 8.23009 69.8683 12.3599C72.5821 12.3009 75.296 12.3009 77.9509 12.3599H78.0689ZM77.5379 2.80236C78.3638 2.80236 78.8948 3.21534 78.8948 3.9233C78.8948 4.63127 78.4228 4.92625 77.5379 4.92625C76.0039 4.92625 74.529 4.86726 72.9951 4.86726C72.9951 4.15929 72.9951 3.45133 72.9951 2.80236C74.529 2.80236 76.0039 2.80236 77.5379 2.86136V2.80236ZM77.7739 7.40413C78.5998 7.40413 79.0718 7.8761 79.0718 8.58407C79.0718 9.23304 78.5998 9.64602 77.7739 9.64602C76.1809 9.58702 74.529 9.58702 72.9361 9.58702C72.9361 8.82006 72.9361 8.11209 72.9361 7.34513C74.529 7.34513 76.1809 7.34513 77.7739 7.40413Z" fill="#FDBB2A"/>
<path d="M123.733 21.2686C121.314 20.0296 118.836 18.9087 116.299 17.9057C116.299 17.1978 116.299 16.4898 116.299 15.7818C118.541 16.6668 120.724 17.6698 122.907 18.7317V15.7818C120.724 14.7789 118.541 13.7759 116.299 12.891C116.299 12.242 116.299 11.5931 116.299 10.9441C118.777 11.947 121.255 13.009 123.733 14.1889C123.733 13.186 123.733 12.183 123.733 11.1211C120.37 9.52816 116.948 8.11223 113.467 6.87329C113.467 11.1211 113.467 15.4279 113.467 19.6756C116.948 21.0326 120.37 22.5665 123.792 24.2774C123.792 23.2745 123.792 22.2715 123.792 21.2096L123.733 21.2686Z" fill="#FDBB2A"/>
</g>
<defs>
<clipPath id="clip0_4487_41">
<rect width="150" height="150" fill="white"/>
</clipPath>
</defs>
</svg>
